<svg id="Layer_1" data-name="Layer 1" xmlns="http://www.w3.org/2000/svg" viewBox="0 0 163.4 332.47">
  <defs>
    <style>
      .cls-1 {
        fill: #5f96bc;
      }
    </style>
  </defs>
  <title>logo-coaching</title>
  <path class="cls-1" d="M157.59,352.56a9.58,9.58,0,0,1-9.47-8.2c-3-20.39-36.57-31.89-69.07-43.67-40.78-14.78-82.93-30-74.18-67,9.7-41,35.47-68.67,56.18-90.9,17.39-18.67,31.55-33.43,30.5-49.11C89.94,69.57,44.48,53.59,19.61,42.22c-3.62-1.66-5.48-2.57-8.54-4a9.58,9.58,0,0,1,8.15-17.33c3,1.41,6.34,2.94,9.89,4.56,34.56,15.79,80.34,36.79,81.58,67.44,1,23.68-16,41.87-35.62,62.94-20.16,21.65-43,46.18-51.55,82.25-4.49,19,21.65,30,62,44.67,37.8,13.7,76.88,27.19,81.49,58.92a9.58,9.58,0,0,1-8.1,10.85A9.7,9.7,0,0,1,157.59,352.56Z" transform="translate(-3.71 -20.1)"/>
</svg>
