<?xml version="1.0" encoding="utf-8"?>
<!-- Generator: Adobe Illustrator 19.2.1, SVG Export Plug-In . SVG Version: 6.00 Build 0)  -->
<svg version="1.1" id="Laag_1" xmlns="http://www.w3.org/2000/svg" xmlns:xlink="http://www.w3.org/1999/xlink" x="0px" y="0px"
	 viewBox="0 0 426.4 426.5" style="enable-background:new 0 0 426.4 426.5;" xml:space="preserve">
<style type="text/css">
	.st0{fill:#C9D646;}
	.st1{fill:#6D9BCF;}
	.st2{fill:#006BA8;}
	.st3{fill:#FFFFFF;stroke:#FFFFFF;stroke-width:2;stroke-miterlimit:10;}
	.st4{fill:#474B4C;stroke:#474B4C;stroke-width:0.6;stroke-miterlimit:10;}
	.st5{fill:#FFFFFF;stroke:#FFFFFF;stroke-width:0.8;stroke-miterlimit:10;}
	.st6{fill:none;stroke:#FFFFFF;stroke-width:2;stroke-miterlimit:10;}
</style>
<path class="st0" d="M213.2,213.2L28,319C10.1,287.8,0,251.7,0,213.2C-0.1,95.6,95.2,0.2,212.9,0L213.2,213.2z"/>
<path class="st1" d="M426.4,213.2c0,38.6-10.2,74.7-28.1,105.9L213.2,213.2L212.9,0h0.3C330.9,0,426.4,95.5,426.4,213.2z"/>
<path class="st2" d="M398.3,319.2c-36.8,64.1-105.9,107.3-185.1,107.3C133.9,426.5,64.8,383.2,28,319l185.2-105.8L398.3,319.2z"/>
<circle class="st3" cx="213.3" cy="214.2" r="64.5"/>
<g>
	<path class="st4" d="M175.2,202.7c0,5.6-3.5,7-6.5,7h-3.2v-13.8h2.9C171.9,195.9,175.2,197,175.2,202.7z M167.4,208.2h1.5
		c2.2,0,4.3-0.9,4.3-5.5c0-4.7-2.3-5.3-4.5-5.3h-1.4L167.4,208.2L167.4,208.2z"/>
	<path class="st4" d="M182.9,209.9c-3.1,0-4.8-1.9-4.8-4.7v-9.4h1.9v9.2c0,2.1,0.9,3.2,2.9,3.2s2.9-1.1,2.9-3.2v-9.2h1.9v9.4
		C187.8,208,186,209.9,182.9,209.9z"/>
	<path class="st4" d="M196.2,209.9c-3.1,0-4.8-1.9-4.8-4.7v-9.4h1.9v9.2c0,2.1,0.9,3.2,2.9,3.2s2.9-1.1,2.9-3.2v-9.2h1.9v9.4
		C201,208,199.3,209.9,196.2,209.9z"/>
	<path class="st4" d="M206.7,203.8v5.8h-1.9v-13.8h3.6c3.4,0,5.2,1.3,5.2,3.9c0,1.9-1,3.1-3,3.7l3.7,6.2H212l-3.3-5.8L206.7,203.8
		L206.7,203.8z M211.7,199.8c0-1.7-1-2.4-3.2-2.4h-1.7v5h1.9C210.6,202.4,211.7,201.6,211.7,199.8z"/>
	<path class="st4" d="M217.6,208h6.8l-0.2,1.6h-8.7v-1.5l6.9-10.7h-6.2v-1.6h8.2v1.5L217.6,208z"/>
	<path class="st4" d="M228.4,206.2l-1,3.5h-1.9l4.4-13.8h2.4l4.4,13.8h-2l-1-3.5H228.4z M231.1,197.5l-2.2,7.2h4.3L231.1,197.5z"/>
	<path class="st4" d="M239.9,206.2l-1,3.5H237l4.4-13.8h2.4l4.4,13.8h-2l-1-3.5H239.9z M242.5,197.5l-2.2,7.2h4.3L242.5,197.5z"/>
	<path class="st4" d="M260.8,209.7l-0.5-6.2c-0.2-2.2-0.3-4.5-0.3-5.6l-3,10.3h-1.8l-3.1-10.3c0,1.6-0.1,3.8-0.3,5.8l-0.5,6.1h-1.8
		l1.1-13.8h2.6l2.9,10l2.8-10h2.6l1.1,13.8h-1.8V209.7z"/>
	<path class="st4" d="M188.9,237.7l-4.4-13.8h2l3.5,11.7l3.5-11.7h1.9l-4.4,13.8H188.9z"/>
	<path class="st4" d="M197.4,237.7v-13.8h1.9v13.8H197.4z"/>
	<path class="st4" d="M207.5,225.5v12.2h-1.9v-12.2h-3.9v-1.6h9.8l-0.2,1.6H207.5z"/>
	<path class="st4" d="M213.6,234.2l-1,3.5h-1.9l4.4-13.8h2.4l4.4,13.8h-2l-1-3.5H213.6z M216.2,225.5l-2.2,7.2h4.3L216.2,225.5z"/>
	<path class="st4" d="M225,234.2l-1,3.5h-1.9l4.4-13.8h2.4l4.4,13.8h-2l-1-3.5H225z M227.6,225.5l-2.2,7.2h4.3L227.6,225.5z"/>
	<path class="st4" d="M243,236l-0.2,1.7h-7.3v-13.8h1.9V236H243z"/>
</g>
<g>
	<path class="st5" d="M288.2,147.3l-0.6,0.7c-0.8-0.6-1.5-0.9-2.5-0.9c-2.1,0-3.9,1.5-3.9,5.4c0,3.7,1.7,5.4,3.9,5.4
		c1.3,0,2-0.5,2.7-1l0.6,0.7c-0.7,0.7-1.8,1.3-3.3,1.3c-2.8,0-5-2.2-5-6.4s2.3-6.4,5-6.4C286.5,146.2,287.4,146.6,288.2,147.3z"/>
	<path class="st5" d="M300.4,152.5c0,4.1-2,6.4-5,6.4s-5-2.2-5-6.3s2.1-6.4,5-6.4C298.4,146.2,300.4,148.4,300.4,152.5z
		 M291.5,152.6c0,3.7,1.6,5.4,3.9,5.4c2.4,0,3.9-1.7,3.9-5.4s-1.5-5.5-3.9-5.5S291.5,148.8,291.5,152.6z"/>
	<path class="st5" d="M304.2,155.3l-1.1,3.4H302l4.1-12.3h1.4l4.1,12.3h-1.1l-1.1-3.4H304.2z M306.8,147.3l-2.3,7.2h4.6L306.8,147.3
		z"/>
	<path class="st5" d="M321.5,147.3l-0.6,0.7c-0.8-0.6-1.5-0.9-2.5-0.9c-2.1,0-3.9,1.5-3.9,5.4c0,3.7,1.7,5.4,3.9,5.4
		c1.3,0,2-0.5,2.7-1l0.6,0.7c-0.7,0.7-1.8,1.3-3.3,1.3c-2.8,0-5-2.2-5-6.4s2.3-6.4,5-6.4C319.8,146.2,320.6,146.6,321.5,147.3z"/>
	<path class="st5" d="M325.8,152.7v6h-1.1v-12.3h1.1v5.4h5.9v-5.4h1.1v12.3h-1.1v-6H325.8z"/>
	<path class="st5" d="M337.5,158.7v-12.3h1.1v12.3H337.5z"/>
	<path class="st5" d="M350,158.7l-5.8-11.1c0.1,0.8,0.1,2,0.1,4.2v6.9h-1v-12.3h1.4l5.9,11.1c0-0.5-0.1-2.1-0.1-3.7v-7.5h1v12.3H350
		V158.7z"/>
	<path class="st5" d="M363.9,147.4l-0.6,0.7c-0.9-0.7-1.6-1-2.8-1c-1.9,0-4,1.5-4,5.4c0,3.8,1.5,5.5,4,5.5c1,0,1.8-0.2,2.6-0.6V153
		h-2.4l-0.1-0.9h3.6v5.8c-1.1,0.6-2.3,1-3.7,1c-3,0-5-2.1-5-6.4c0-4.2,2.5-6.3,5.1-6.3C361.9,146.2,362.9,146.6,363.9,147.4z"/>
	<path class="st5" d="M380.1,148.8c0,1.5-1,2.4-2.8,3.3l3.7,3.5c0.5-1,0.9-2.1,1.2-3.4l1,0.3c-0.4,1.5-0.9,2.7-1.5,3.8l2.2,2.1
		l-0.8,0.6l-2-1.9c-1,1.1-2.2,1.9-4,1.9c-2.1,0-3.8-1.3-3.8-3.3c0-1.6,1-2.6,2.6-3.6c-1.2-1.1-1.8-1.9-1.8-3.1c0-1.5,1.2-2.7,3-2.7
		C378.9,146.2,380.1,147.3,380.1,148.8z M374.4,155.6c0,1.5,1.2,2.4,2.8,2.4c1.5,0,2.5-0.6,3.3-1.6l-3.9-3.8
		C375.2,153.5,374.4,154.4,374.4,155.6z M375.2,148.9c0,0.9,0.3,1.5,1.6,2.7c1.5-0.8,2.3-1.6,2.3-2.7c0-1.2-0.8-1.9-2-1.9
		S375.2,147.9,375.2,148.9z"/>
	<path class="st5" d="M288.7,170.3l-0.6,0.7c-0.8-0.6-1.5-0.9-2.5-0.9c-2.1,0-3.9,1.5-3.9,5.4c0,3.7,1.7,5.4,3.9,5.4
		c1.3,0,2-0.5,2.7-1l0.6,0.7c-0.7,0.7-1.8,1.3-3.3,1.3c-2.8,0-5-2.2-5-6.4s2.3-6.4,5-6.4C287,169.2,287.8,169.6,288.7,170.3z"/>
	<path class="st5" d="M300.5,175.5c0,4.1-2,6.4-5,6.4s-5-2.2-5-6.3s2.1-6.4,5-6.4C298.5,169.2,300.5,171.4,300.5,175.5z
		 M291.6,175.6c0,3.7,1.6,5.4,3.9,5.4c2.4,0,3.9-1.7,3.9-5.4s-1.5-5.5-3.9-5.5C293.2,170.1,291.6,171.8,291.6,175.6z"/>
	<path class="st5" d="M308,181.9c-2.8,0-4.1-1.7-4.1-4.1v-8.5h1.1v8.4c0,2,0.9,3.2,3,3.2s3-1.2,3-3.2v-8.4h1.1v8.5
		C312.1,180.2,310.7,181.9,308,181.9z"/>
	<path class="st5" d="M323,181.7l-5.8-11.1c0.1,0.8,0.1,2,0.1,4.2v6.9h-1v-12.3h1.4l5.9,11.1c0-0.5-0.1-2.1-0.1-3.7v-7.5h1v12.3H323
		V181.7z"/>
	<path class="st5" d="M335.2,170.5l-0.6,0.7c-0.9-0.8-1.7-1.2-2.9-1.2c-1.5,0-2.6,0.8-2.6,2.1s0.7,1.8,2.9,2.5
		c2.2,0.7,3.6,1.5,3.6,3.7c0,2.1-1.6,3.6-4.1,3.6c-1.7,0-2.9-0.6-3.9-1.5l0.6-0.7c0.9,0.8,1.8,1.3,3.3,1.3c1.7,0,3-1,3-2.6
		c0-1.5-0.7-2.1-2.9-2.8c-2.4-0.8-3.5-1.6-3.5-3.4c0-1.7,1.5-3,3.6-3C333.2,169.2,334.2,169.7,335.2,170.5z"/>
	<path class="st5" d="M340,170.3v4.6h4.4v0.9H340v5h5.3v0.9h-6.4v-12.3h6.3l-0.1,0.9L340,170.3L340,170.3z"/>
	<path class="st5" d="M354.8,180.7l-0.1,1h-6.1v-12.3h1.1v11.4L354.8,180.7L354.8,180.7z"/>
	<path class="st5" d="M357.5,181.7v-12.3h1.1v12.3H357.5z"/>
	<path class="st5" d="M369.7,181.7l-5.8-11.1c0.1,0.8,0.1,2,0.1,4.2v6.9h-1v-12.3h1.4l5.9,11.1c0-0.5-0.1-2.1-0.1-3.7v-7.5h1v12.3
		h-1.5V181.7z"/>
	<path class="st5" d="M383.3,170.4l-0.6,0.7c-0.9-0.7-1.6-1-2.8-1c-1.9,0-4,1.5-4,5.4c0,3.8,1.5,5.5,4,5.5c1,0,1.8-0.2,2.6-0.6V176
		h-2.4l-0.1-0.9h3.6v5.8c-1.1,0.6-2.3,1-3.7,1c-3,0-5-2.1-5-6.4c0-4.2,2.5-6.3,5.1-6.3C381.3,169.2,382.3,169.6,383.3,170.4z"/>
</g>
<g>
	<path class="st5" d="M30.9,147.6v4.8h4.3v0.9h-4.3v5.7h-1.1v-12.3H36l-0.1,0.9L30.9,147.6L30.9,147.6z"/>
	<path class="st5" d="M42.4,159h-1.1v-4.8l-3.9-7.5h1.2l3.3,6.6l3.3-6.6h1.2l-3.9,7.5L42.4,159L42.4,159z"/>
	<path class="st5" d="M55,147.9l-0.6,0.7c-0.9-0.8-1.7-1.2-2.9-1.2c-1.5,0-2.6,0.8-2.6,2.1s0.7,1.8,2.9,2.5s3.6,1.5,3.6,3.7
		c0,2.1-1.6,3.6-4.1,3.6c-1.7,0-2.9-0.6-3.9-1.5l0.6-0.7c0.9,0.8,1.8,1.3,3.3,1.3c1.7,0,3-1,3-2.6c0-1.5-0.7-2.1-2.9-2.8
		c-2.4-0.8-3.5-1.6-3.5-3.4c0-1.7,1.5-3,3.6-3C53,146.5,54,147,55,147.9z"/>
	<path class="st5" d="M59,159v-12.3h1.1V159H59z"/>
	<path class="st5" d="M74.1,152.9c0,4.1-2,6.4-5,6.4s-5-2.2-5-6.3s2.1-6.4,5-6.4C72,146.5,74.1,148.7,74.1,152.9z M65.1,152.9
		c0,3.7,1.6,5.4,3.9,5.4c2.4,0,3.9-1.7,3.9-5.4s-1.5-5.5-3.9-5.5C66.7,147.4,65.1,149.2,65.1,152.9z"/>
	<path class="st5" d="M80.6,147.7V159h-1.1v-11.4h-3.7v-1h8.5l-0.1,1L80.6,147.7L80.6,147.7z"/>
	<path class="st5" d="M88.3,153v6h-1.1v-12.3h1.1v5.4h5.9v-5.4h1.1V159h-1.1v-6H88.3z"/>
	<path class="st5" d="M101.1,147.6v4.6h4.4v0.9h-4.4v5h5.3v0.9H100v-12.3h6.3l-0.1,0.9L101.1,147.6L101.1,147.6z"/>
	<path class="st5" d="M111,153.5v5.5h-1.1v-12.3h3c3,0,4.4,1.2,4.4,3.3c0,1.8-1,2.8-2.8,3.3l3.4,5.7h-1.3l-3.2-5.5H111z
		 M116.2,150.1c0-1.6-0.9-2.5-3.3-2.5H111v5h2.1C115.1,152.6,116.2,151.9,116.2,150.1z"/>
	<path class="st5" d="M121.8,155.7l-1.1,3.4h-1.1l4.1-12.3h1.4l4.1,12.3h-1.1l-1.1-3.4H121.8z M124.4,147.6l-2.3,7.2h4.6
		L124.4,147.6z"/>
	<path class="st5" d="M139.6,150.4c0,2.8-1.9,3.8-4.6,3.8h-1.8v4.8h-1.1v-12.3h2.9C138,146.7,139.6,147.8,139.6,150.4z M138.5,150.4
		c0-2.1-1.3-2.8-3.4-2.8h-1.8v5.8h1.8C137.1,153.4,138.5,152.7,138.5,150.4z"/>
	<path class="st5" d="M143.2,159v-12.3h1.1V159H143.2z"/>
	<path class="st5" d="M150.1,147.6v4.6h4.4v0.9h-4.4v5h5.3v0.9H149v-12.3h6.3l-0.1,0.9L150.1,147.6L150.1,147.6z"/>
</g>
<g>
	<path class="st5" d="M159.2,326.4c0,2.8-1.9,3.8-4.6,3.8h-1.8v4.8h-1.1v-12.3h2.9C157.5,322.7,159.2,323.8,159.2,326.4z
		 M158.1,326.4c0-2.1-1.3-2.8-3.4-2.8h-1.8v5.8h1.8C156.7,329.4,158.1,328.7,158.1,326.4z"/>
	<path class="st5" d="M164.1,323.6v4.6h4.4v0.9h-4.4v5h5.3v0.9H163v-12.3h6.3l-0.1,0.9H164.1z"/>
	<path class="st5" d="M174.3,329.5v5.5h-1.1v-12.3h3c3,0,4.4,1.2,4.4,3.3c0,1.8-1,2.8-2.8,3.3l3.4,5.7h-1.3l-3.2-5.5H174.3z
		 M179.5,326.1c0-1.6-0.9-2.5-3.3-2.5h-1.9v5h2.1C178.4,328.6,179.5,327.9,179.5,326.1z"/>
	<path class="st5" d="M191.2,323.9l-0.6,0.7c-0.9-0.8-1.7-1.2-2.9-1.2c-1.5,0-2.6,0.8-2.6,2.1c0,1.3,0.7,1.8,2.9,2.5
		s3.6,1.5,3.6,3.7c0,2.1-1.6,3.6-4.1,3.6c-1.7,0-2.9-0.6-3.9-1.5l0.6-0.7c0.9,0.8,1.8,1.3,3.3,1.3c1.7,0,3-1,3-2.6
		c0-1.5-0.7-2.1-2.9-2.8c-2.4-0.8-3.5-1.6-3.5-3.4c0-1.7,1.5-3,3.6-3C189.3,322.5,190.3,323,191.2,323.9z"/>
	<path class="st5" d="M204.9,328.9c0,4.1-2,6.4-5,6.4s-5-2.2-5-6.3c0-4.1,2.1-6.4,5-6.4C202.8,322.5,204.9,324.7,204.9,328.9z
		 M195.9,328.9c0,3.7,1.6,5.4,3.9,5.4c2.4,0,3.9-1.7,3.9-5.4c0-3.7-1.5-5.5-3.9-5.5C197.5,323.4,195.9,325.2,195.9,328.9z"/>
	<path class="st5" d="M218.3,328.9c0,4.1-2,6.4-5,6.4s-5-2.2-5-6.3c0-4.1,2.1-6.4,5-6.4C216.3,322.5,218.3,324.7,218.3,328.9z
		 M209.4,328.9c0,3.7,1.6,5.4,3.9,5.4c2.4,0,3.9-1.7,3.9-5.4c0-3.7-1.5-5.5-3.9-5.5S209.4,325.2,209.4,328.9z"/>
	<path class="st5" d="M229.2,335l-5.8-11.1c0.1,0.8,0.1,2,0.1,4.2v6.9h-1v-12.3h1.4l5.9,11.1c0-0.5-0.1-2.1-0.1-3.7v-7.5h1V335
		H229.2z"/>
	<path class="st5" d="M241.8,334.1l-0.1,1h-6.1v-12.3h1.1v11.4h5.1V334.1z"/>
	<path class="st5" d="M245.2,335v-12.3h1.1V335H245.2z"/>
	<path class="st5" d="M249.8,337.2l-0.3-0.8c1.6-0.7,2-1.4,2-3.1v-10.6h1.1v10.7C252.6,335.6,251.8,336.4,249.8,337.2z"/>
	<path class="st5" d="M257.5,335v-12.3h1.1V335H257.5z M265.3,335H264l-5.4-6.6l5.1-5.7h1.2l-5.1,5.7L265.3,335z"/>
	<path class="st5" d="M269.4,323.6v4.6h4.4v0.9h-4.4v5h5.3v0.9h-6.4v-12.3h6.3l-0.1,0.9H269.4z"/>
	<path class="st5" d="M160.5,351.9c0,4.1-2,6.4-5,6.4s-5-2.2-5-6.3c0-4.1,2.1-6.4,5-6.4C158.5,345.5,160.5,347.7,160.5,351.9z
		 M151.6,351.9c0,3.7,1.6,5.4,3.9,5.4c2.4,0,3.9-1.7,3.9-5.4c0-3.7-1.5-5.5-3.9-5.5C153.2,346.4,151.6,348.2,151.6,351.9z"/>
	<path class="st5" d="M171.1,358l-5.8-11.1c0.1,0.8,0.1,2,0.1,4.2v6.9h-1v-12.3h1.4l5.9,11.1c0-0.5-0.1-2.1-0.1-3.7v-7.5h1V358
		H171.1z"/>
	<path class="st5" d="M180.3,346.7V358h-1.1v-11.4h-3.7v-1h8.5l-0.1,1h-3.6V346.7z"/>
	<path class="st5" d="M194.9,358l-2.7-11.1l-2.7,11.1h-1.3l-2.7-12.3h1.1l2.3,11.3l2.7-11.3h1.2l2.8,11.3l2.4-11.3h1l-2.7,12.3
		H194.9z"/>
	<path class="st5" d="M202.2,358v-12.3h1.1V358H202.2z"/>
	<path class="st5" d="M208,358v-12.3h1.1V358H208z M215.8,358h-1.3l-5.4-6.6l5.1-5.7h1.2l-5.1,5.7L215.8,358z"/>
	<path class="st5" d="M218.6,358v-12.3h1.1V358H218.6z M226.4,358h-1.3l-5.4-6.6l5.1-5.7h1.2l-5.1,5.7L226.4,358z"/>
	<path class="st5" d="M230.2,346.6v4.6h4.4v0.9h-4.4v5h5.3v0.9h-6.4v-12.3h6.3l-0.1,0.9H230.2z"/>
	<path class="st5" d="M245.3,357.1l-0.1,1h-6.1v-12.3h1.1v11.4h5.1V357.1z"/>
	<path class="st5" d="M248.3,358v-12.3h1.1V358H248.3z"/>
	<path class="st5" d="M260.8,358l-5.8-11.1c0.1,0.8,0.1,2,0.1,4.2v6.9h-1v-12.3h1.4l5.9,11.1c0-0.5-0.1-2.1-0.1-3.7v-7.5h1V358
		H260.8z"/>
	<path class="st5" d="M274.7,346.7l-0.6,0.7c-0.9-0.7-1.6-1-2.8-1c-1.9,0-4,1.5-4,5.4c0,3.8,1.5,5.5,4,5.5c1,0,1.8-0.2,2.6-0.6v-4.4
		h-2.4l-0.1-0.9h3.6v5.8c-1.1,0.6-2.3,1-3.7,1c-3,0-5-2.1-5-6.4c0-4.2,2.5-6.3,5.1-6.3C272.7,345.5,273.7,345.9,274.7,346.7z"/>
</g>
<line class="st6" x1="401.5" y1="321" x2="398.3" y2="319.1"/>
<line class="st6" x1="28" y1="319" x2="22.2" y2="322.3"/>
<line class="st6" x1="212.9" y1="0" x2="213.3" y2="149.2"/>
<line class="st6" x1="27.9" y1="319.6" x2="156.3" y2="246.1"/>
<line class="st6" x1="270.3" y1="245.6" x2="398.3" y2="319.2"/>
</svg>
