<svg id="Layer_1" data-name="Layer 1" xmlns="http://www.w3.org/2000/svg" viewBox="0 0 378.11 353.25">
  <defs>
    <style>
      .cls-1 {
        fill: #0071aa;
      }

      .cls-2 {
        fill: #5f96bc;
      }

      .cls-3 {
        fill: #bfd857;
      }
    </style>
  </defs>
  <title>logo</title>
  <g>
    <g>
      <path class="cls-1" d="M523.81,480.9a9.58,9.58,0,0,1-9.55-9c-0.74-13.05-33.54-23.24-59.43-31-39.14-11.67-81.71-28.49-78.22-58.45,4.4-37.73,30-69.28,52-97.19,15.31-19.4,29.55-37.75,31.69-52,4.36-29-64-50.86-69.88-53.63a9.58,9.58,0,1,1,8.15-17.33c5.47,2.57,12.67,6.56,19,9.16,29.71,12.26,66.69,27.52,61.73,64.36-2.62,19.43-17.92,38.81-35.63,61.26-20.49,26-43.72,55.4-48,87.84-2.56,19.24,31.93,29.52,65.29,39.46,36.5,10.88,71,19.85,72.49,46.33a9.58,9.58,0,0,1-9,10.11Z" transform="translate(-376.41 -128.34)"/>
      <path class="cls-2" d="M534,480.9a9.58,9.58,0,0,1-9.47-8.2c-3-20.39-36.57-31.89-69.07-43.67C414.68,414.25,372.53,399,381.28,362c9.7-41,35.47-68.67,56.18-90.9,17.39-18.67,31.55-33.43,30.5-49.11-1.61-24.08-47.07-40.06-71.94-51.43-3.62-1.66-5.48-2.57-8.54-4a9.58,9.58,0,0,1,8.15-17.33c3,1.41,6.34,2.94,9.89,4.56,34.56,15.79,80.34,36.79,81.58,67.44,1,23.68-16,41.87-35.62,62.94-20.16,21.65-43,46.18-51.55,82.25-4.49,19,21.65,30,62,44.67,37.8,13.7,76.88,27.19,81.49,58.92a9.58,9.58,0,0,1-8.1,10.85A9.7,9.7,0,0,1,534,480.9Z" transform="translate(-376.41 -128.34)"/>
      <path class="cls-3" d="M545.64,481.59a14.37,14.37,0,0,1-13.73-10.15c-0.44-1.43-.7-1.93-1.18-3.88-1.51-6.25-3.4-14-9.28-19.61-16.45-15.63-44.56-25-69.36-33.29-30.51-10.18-56.85-19-65.83-39.1C370.6,340.45,403.22,304.62,434.75,270c18.15-19.94,38.72-42.53,40.47-57s-8.73-20.69-63-46.32c-7.12-3.36-15.46-7-23.75-11A14.36,14.36,0,1,1,401,129.76c8.23,4,16.52,7.57,23.59,10.91,55.65,26.3,83.58,39.5,79.2,75.74C500.89,240,479.09,263.95,456,289.31c-24.14,26.53-51.51,56.59-43.5,74.55,3.83,8.58,28.7,16.88,48.69,23.55,27.64,9.22,59,19.68,80.05,39.72,12,11.42,17.83,34.91,18.13,35.87A14.37,14.37,0,0,1,545.64,481.59Z" transform="translate(-376.41 -128.34)"/>
      <g>
        <path class="cls-3" d="M621.89,330.88H532.55c2.37,33.47,17.66,46.64,38.74,46.64,14,0,24.24-4,36.37-12.39l9.75,13.18c-13.44,10.8-28.72,17.39-47.7,17.39-38.21,0-60.61-27.15-60.61-71.15,0-43.48,21.61-73.79,56.92-73.79,37.16,0,56.39,26.09,56.39,68C622.42,323.5,622.15,328,621.89,330.88Zm-21.35-18.45c0-27.93-11.07-44-34-44-19.24,0-32.15,13.7-34,46.12h68v-2.11Z" transform="translate(-376.41 -128.34)"/>
        <path class="cls-3" d="M754,330.88H664.65c2.37,33.47,17.66,46.64,38.74,46.64,14,0,24.24-4,36.37-12.39l9.75,13.18c-13.44,10.8-28.72,17.39-47.7,17.39-38.21,0-60.61-27.15-60.61-71.15,0-43.48,21.61-73.79,56.92-73.79,37.16,0,56.39,26.09,56.39,68C754.52,323.5,754.25,328,754,330.88Zm-21.35-18.45c0-27.93-11.07-44-34-44-19.24,0-32.15,13.7-34,46.12h68v-2.11Z" transform="translate(-376.41 -128.34)"/>
      </g>
    </g>
    <g>
      <path class="cls-3" d="M585.93,421.52a1.73,1.73,0,1,1-1.74-1.68A1.65,1.65,0,0,1,585.93,421.52ZM583,442.29V427h2.44v15.26H583Z" transform="translate(-376.41 -128.34)"/>
      <path class="cls-3" d="M604,431.35v10.94h-2.44V431.7c0-2.35-1-3.1-2.52-3.1-1.8,0-3,1.13-4.06,2.81v10.88h-2.44V427h2.09l0.2,2.29a5.81,5.81,0,0,1,4.79-2.64C602.4,426.68,604,428.45,604,431.35Z" transform="translate(-376.41 -128.34)"/>
      <path class="cls-3" d="M632.62,434.63c0,4.82-2.23,8-5.95,8a5.22,5.22,0,0,1-4.12-2.06l-0.26,1.71h-2.12V420.88l2.44-.29V429a5.25,5.25,0,0,1,4.38-2.29C630.45,426.68,632.62,429.55,632.62,434.63Zm-2.61,0c0-4.38-1.45-6-3.68-6a4.47,4.47,0,0,0-3.71,2.44v7.51a4.27,4.27,0,0,0,3.51,2.12C628.45,440.69,630,438.86,630,434.63Z" transform="translate(-376.41 -128.34)"/>
      <path class="cls-3" d="M650.05,435.5h-9.83c0.26,3.68,1.94,5.13,4.26,5.13a6.49,6.49,0,0,0,4-1.36l1.07,1.45a8.09,8.09,0,0,1-5.25,1.91c-4.21,0-6.67-3-6.67-7.83s2.38-8.12,6.27-8.12c4.09,0,6.21,2.87,6.21,7.48C650.11,434.69,650.08,435.18,650.05,435.5Zm-2.35-2c0-3.07-1.22-4.84-3.74-4.84-2.12,0-3.54,1.51-3.74,5.08h7.48v-0.23Z" transform="translate(-376.41 -128.34)"/>
      <path class="cls-3" d="M666.44,442.29l-2.81-13.05-2.9,13.05h-3.25L653.85,427h2.47l2.87,13.55L662.32,427H665l3,13.55L671,427h2.32l-3.51,15.26h-3.34Z" transform="translate(-376.41 -128.34)"/>
      <path class="cls-3" d="M689.2,435.5h-9.83c0.26,3.68,1.94,5.13,4.26,5.13a6.49,6.49,0,0,0,4-1.36l1.07,1.45a8.09,8.09,0,0,1-5.25,1.91c-4.21,0-6.67-3-6.67-7.83s2.38-8.12,6.27-8.12c4.09,0,6.21,2.87,6.21,7.48C689.26,434.69,689.23,435.18,689.2,435.5Zm-2.35-2c0-3.07-1.22-4.84-3.74-4.84-2.12,0-3.54,1.51-3.74,5.08h7.48v-0.23Z" transform="translate(-376.41 -128.34)"/>
      <path class="cls-3" d="M702.89,428.1a4,4,0,0,1,2.67,3.92c0,3-2.15,5.13-5.74,5.13a6.08,6.08,0,0,1-1.94-.29,1.81,1.81,0,0,0-.84,1.51c0,0.73.46,1.31,2.09,1.31h2.44c3.1,0,5.13,1.77,5.13,4.15,0,2.93-2.35,4.58-7,4.58-4.9,0-6.5-1.48-6.5-4.55h2.2c0,1.83.87,2.64,4.29,2.64s4.55-.9,4.55-2.5-1.19-2.26-3.16-2.26h-2.41c-2.67,0-3.89-1.33-3.89-2.84a3.23,3.23,0,0,1,1.65-2.67,4.41,4.41,0,0,1-2.55-4.26c0-3.1,2.44-5.28,5.8-5.28,3.86,0.09,5.19-.49,6.9-1.28l0.73,2.23A16.2,16.2,0,0,1,702.89,428.1ZM696.36,432c0,2.15,1.22,3.57,3.36,3.57s3.34-1.3,3.34-3.57-1.13-3.51-3.39-3.51S696.36,429.93,696.36,432Z" transform="translate(-376.41 -128.34)"/>
      <path class="cls-3" d="M714.57,421.52a1.73,1.73,0,1,1-1.74-1.68A1.65,1.65,0,0,1,714.57,421.52Zm-2.93,20.77V427h2.44v15.26h-2.44Z" transform="translate(-376.41 -128.34)"/>
      <path class="cls-3" d="M732.64,431.35v10.94H730.2V431.7c0-2.35-1-3.1-2.52-3.1-1.8,0-3,1.13-4.06,2.81v10.88h-2.44V427h2.09l0.2,2.29a5.81,5.81,0,0,1,4.79-2.64C731,426.68,732.64,428.45,732.64,431.35Z" transform="translate(-376.41 -128.34)"/>
      <path class="cls-3" d="M747.26,428.1a4,4,0,0,1,2.67,3.92c0,3-2.15,5.13-5.74,5.13a6.08,6.08,0,0,1-1.94-.29,1.81,1.81,0,0,0-.84,1.51c0,0.73.46,1.31,2.09,1.31h2.44c3.1,0,5.13,1.77,5.13,4.15,0,2.93-2.35,4.58-7,4.58-4.9,0-6.5-1.48-6.5-4.55h2.2c0,1.83.87,2.64,4.29,2.64s4.55-.9,4.55-2.5-1.19-2.26-3.16-2.26H743c-2.67,0-3.89-1.33-3.89-2.84a3.23,3.23,0,0,1,1.65-2.67,4.41,4.41,0,0,1-2.55-4.26c0-3.1,2.44-5.28,5.8-5.28,3.86,0.09,5.19-.49,6.9-1.28l0.73,2.23A16.2,16.2,0,0,1,747.26,428.1ZM740.73,432c0,2.15,1.22,3.57,3.36,3.57s3.34-1.3,3.34-3.57-1.13-3.51-3.39-3.51S740.73,429.93,740.73,432Z" transform="translate(-376.41 -128.34)"/>
    </g>
  </g>
</svg>
